<svg version="1.1" id="Layer_1" xmlns="http://www.w3.org/2000/svg" xmlns:xlink="http://www.w3.org/1999/xlink" x="0px" y="0px"
	 width="100%" viewBox="0 0 70 83" enable-background="new 0 0 70 83" xml:space="preserve">
<path fill="#3872C8" opacity="1.000000" stroke="none" 
	d="
M71.000000,80.000000 
	C71.000000,81.318939 71.000000,82.637871 71.000000,84.000000 
	C58.979134,84.000000 46.958225,84.000000 34.296860,83.682678 
	C30.143192,82.332611 28.833078,80.165237 28.921412,76.356995 
	C29.176109,65.376320 29.254049,54.378300 28.909601,43.402523 
	C28.735405,37.851868 30.692713,33.346333 33.745766,29.118111 
	C37.804089,23.497677 41.263706,23.019142 46.589558,27.289446 
	C49.439869,29.574844 52.841717,31.085508 55.598404,28.551769 
	C57.567886,26.741568 58.908611,23.219955 58.863564,20.489487 
	C58.798309,16.534447 55.272263,14.111869 51.647751,14.309188 
	C47.871479,14.514769 43.668949,15.552870 40.579998,17.615524 
	C36.340370,20.446548 32.973736,24.584936 28.895500,28.485939 
	C28.895500,23.634113 28.895500,19.043148 28.895500,13.681709 
	C21.597399,16.453278 14.895539,18.998415 7.442107,21.828974 
	C9.005791,22.888302 9.711614,23.622377 10.566393,23.903450 
	C15.602823,25.559547 16.372713,29.189508 16.269884,34.022850 
	C15.976071,47.833065 15.941775,61.659336 16.295647,75.466728 
	C16.410341,79.941940 15.104486,82.599625 11.000000,84.000000 
	C7.684336,84.000000 4.368672,84.000000 1.000000,84.000000 
	C1.000000,59.979130 1.000000,35.958221 1.396806,11.467295 
	C9.900363,8.300971 18.015268,5.628346 26.092571,2.846544 
	C26.552479,2.688152 26.704620,1.636120 27.000000,1.000000 
	C35.354233,1.000000 43.708466,1.000000 52.202477,1.281803 
	C53.140976,2.051536 53.891308,2.657011 54.746052,3.008837 
	C61.707722,5.874383 66.592415,10.726234 67.913445,18.232498 
	C69.399918,26.678885 66.560493,33.556778 58.736206,37.700077 
	C55.125385,39.612175 51.224667,40.976837 47.369072,42.626644 
	C53.657917,53.348419 59.852058,64.057930 66.232590,74.655212 
	C67.442680,76.665031 69.391846,78.229851 71.000000,80.000000 
z"/>
<path fill="#FAFBFD" opacity="1.000000" stroke="none" 
	d="
M11.468622,84.000000 
	C15.104486,82.599625 16.410341,79.941940 16.295647,75.466728 
	C15.941775,61.659336 15.976071,47.833065 16.269884,34.022850 
	C16.372713,29.189508 15.602823,25.559547 10.566393,23.903450 
	C9.711614,23.622377 9.005791,22.888302 7.442107,21.828974 
	C14.895539,18.998415 21.597399,16.453278 28.895500,13.681709 
	C28.895500,19.043148 28.895500,23.634113 28.895500,28.485939 
	C32.973736,24.584936 36.340370,20.446548 40.579998,17.615524 
	C43.668949,15.552870 47.871479,14.514769 51.647751,14.309188 
	C55.272263,14.111869 58.798309,16.534447 58.863564,20.489487 
	C58.908611,23.219955 57.567886,26.741568 55.598404,28.551769 
	C52.841717,31.085508 49.439869,29.574844 46.589558,27.289446 
	C41.263706,23.019142 37.804089,23.497677 33.745766,29.118111 
	C30.692713,33.346333 28.735405,37.851868 28.909601,43.402523 
	C29.254049,54.378300 29.176109,65.376320 28.921412,76.356995 
	C28.833078,80.165237 30.143192,82.332611 33.828201,83.682678 
	C26.645748,84.000000 19.291496,84.000000 11.468622,84.000000 
z"/>
<path fill="none" opacity="1.000000" stroke="none" 
	d="
M71.000000,79.531342 
	C69.391846,78.229851 67.442680,76.665031 66.232590,74.655212 
	C59.852058,64.057930 53.657917,53.348419 47.369072,42.626644 
	C51.224667,40.976837 55.125385,39.612175 58.736206,37.700077 
	C66.560493,33.556778 69.399918,26.678885 67.913445,18.232498 
	C66.592415,10.726234 61.707722,5.874383 54.746052,3.008837 
	C53.891308,2.657011 53.140976,2.051536 52.671127,1.281803 
	C58.972809,1.000000 64.945618,1.000000 71.000000,1.000000 
	C71.000000,27.020844 71.000000,53.041763 71.000000,79.531342 
z"/>
<path fill="none" opacity="1.000000" stroke="none" 
	d="
M26.531334,1.000000 
	C26.704620,1.636120 26.552479,2.688152 26.092571,2.846544 
	C18.015268,5.628346 9.900363,8.300971 1.396806,10.998637 
	C1.000000,7.707731 1.000000,4.415462 1.000000,1.000000 
	C9.353917,1.000000 17.708292,1.000000 26.531334,1.000000 
z"/>
</svg>
